<svg xmlns="http://www.w3.org/2000/svg" width="167" height="50" fill="none" viewBox="0 0 167 50">
    <path fill="#fff" d="M74.905 23.37v1.65c0 3.052-.97 5.506-2.929 7.403-1.96 1.898-4.475 2.826-7.548 2.826-3.3 0-6.022-1.073-8.188-3.218-2.165-2.144-3.238-4.764-3.238-7.837 0-3.114 1.073-5.733 3.218-7.898 2.145-2.145 4.805-3.238 7.96-3.238 2 0 3.816.453 5.445 1.36 1.65.908 2.929 2.104 3.836 3.61l-3.588 2.062c-.516-.866-1.28-1.588-2.31-2.124-1.032-.557-2.166-.825-3.424-.825-2.02 0-3.691.66-5.011 2-1.32 1.341-1.96 3.012-1.96 5.033 0 2 .66 3.67 2 4.99 1.32 1.32 3.094 1.96 5.28 1.96 1.63 0 2.97-.35 4.043-1.073 1.072-.721 1.794-1.711 2.186-2.97h-6.455V23.37h10.683zM90.682 32.939c-1.568 1.547-3.465 2.33-5.734 2.33-2.268 0-4.165-.783-5.712-2.33-1.547-1.547-2.33-3.465-2.33-5.713s.783-4.166 2.33-5.712c1.546-1.547 3.465-2.33 5.712-2.33 2.248 0 4.166.783 5.734 2.33 1.567 1.546 2.35 3.464 2.35 5.712 0 2.248-.783 4.146-2.35 5.713zm-8.683-2.702c.784.784 1.753 1.197 2.95 1.197 1.175 0 2.165-.392 2.949-1.197.783-.783 1.196-1.794 1.196-3.01 0-1.218-.392-2.228-1.196-3.012-.784-.783-1.774-1.196-2.95-1.196-1.175 0-2.165.392-2.949 1.196-.783.784-1.175 1.794-1.175 3.011.02 1.217.412 2.207 1.175 3.011zM109.841 34.837h-4.578l-5.548-6.93v6.93h-3.94V13.512h3.94V26.34l5.238-6.724h4.682l-6.125 7.528 6.331 7.693zM129.867 19.596h3.774l-4.434 15.24h-3.857l-2.887-9.239-2.887 9.24h-3.857l-4.475-15.241h4.166l2.598 9.363 2.784-9.363h3.713l2.784 9.383 2.578-9.383zM147.149 19.596h3.939v15.24h-3.939v-1.794c-1.175 1.485-2.825 2.227-4.97 2.227-2.021 0-3.774-.783-5.218-2.33-1.444-1.547-2.186-3.465-2.186-5.713s.722-4.166 2.186-5.712c1.444-1.547 3.197-2.33 5.218-2.33 2.124 0 3.795.742 4.97 2.226v-1.814zm-7.259 10.703c.783.805 1.794 1.196 3.011 1.196 1.216 0 2.227-.392 3.031-1.196.805-.804 1.196-1.835 1.196-3.093s-.391-2.29-1.196-3.094c-.804-.804-1.815-1.196-3.031-1.196-1.217 0-2.228.392-3.011 1.196-.784.805-1.197 1.836-1.197 3.094.021 1.278.413 2.31 1.197 3.093zM159.4 31.145h6.764v3.692h-12.003v-2.62l6.414-8.93h-6.125v-3.691h11.405v2.619l-6.455 8.93z"/>
    <path fill="#F04E44" d="M10.951 22.339l-3.98-5.692L0 21.74v6.6c.516-.805 1.114-1.568 1.815-2.27C4.29 23.598 7.32 22.36 10.95 22.34zM1.856 44.261C1.134 43.54.516 42.776 0 41.972.103 48.2 6.496 52.036 11.59 48.86l1.61-1.01c-.599.082-1.238.103-1.878.103-3.815.02-6.95-1.217-9.466-3.692zM17.035 11.45c1.691-1.692 3.65-2.806 5.857-3.342L11.57 1.117C8.518-.76 5.012-.141 2.66 2.004l10.952 15.653c.495-2.351 1.629-4.434 3.423-6.208zM.103 6.85C.041 7.283 0 7.737 0 8.19v7.528l4.166-3.052L.103 6.85zM31.781 14.728c-1.526-1.526-3.423-2.289-5.671-2.289s-4.146.763-5.672 2.29c-1.526 1.525-2.29 3.464-2.29 5.815 0 2.042.578 3.753 1.713 5.156.185.227.37.433.577.64.083.082.186.185.289.267 1.485 1.34 3.279 2 5.383 2 2.248 0 4.145-.762 5.671-2.268 1.526-1.505 2.29-3.444 2.29-5.795s-.764-4.29-2.29-5.816z"/>
    <path fill="#F04E44" d="M39.02 18.028l-.371-.227c.165.867.268 1.795.268 2.743 0 3.589-1.238 6.62-3.733 9.116-2.496 2.475-5.527 3.712-9.095 3.712-3.217 0-5.981-1.01-8.29-3.011l-1.28-1.258-.061-.062c-.021-.02-.042-.02-.042-.041l-.02-.02c-.413-.372-.887-.702-1.423-.99-1.196-.64-2.516-.95-3.96-.95-2.351 0-4.29.764-5.795 2.31-1.506 1.547-2.269 3.486-2.269 5.837 0 2.33.763 4.248 2.31 5.754 1.547 1.505 3.568 2.268 6.105 2.268 1.876 0 3.444-.412 4.66-1.258 1.238-.825 2.063-1.98 2.517-3.444h-7.466v-4.29h12.374v1.898c0 2.454-.536 4.558-1.63 6.373l17.242-10.745c5.094-3.156 5.074-10.56-.041-13.715z"/>
</svg>
