<svg xmlns="http://www.w3.org/2000/svg" width="40" height="40" fill="none" viewBox="0 0 40 40">
    <path fill="#FFEA84" d="M20.313 16.094h2.343v-4.688h-2.343V2.031H0v9.375h2.344v4.688H0v9.375h2.344v4.687H0v4.688h20.313v-4.688h2.343V25.47h-2.343v-9.375z"/>
    <path fill="#FFDC40" d="M20.313 16.094h2.343v-4.688h-2.343V2.031h-8.985v32.813h8.985v-4.688h2.343V25.47h-2.343v-9.375z"/>
    <path fill="#FFDC40" d="M22.656 25.469H2.344v4.687h20.312V25.47zM20.313 16.094H0v4.687h20.313v-4.687zM20.313 6.719H0v4.687h20.313V6.72z"/>
    <path fill="#FFAB15" d="M20.313 16.094h-8.985v4.687h8.985v-4.687zM20.313 6.719h-8.985v4.687h8.985V6.72zM22.656 25.469H11.328v4.687h11.328V25.47z"/>
    <path fill="#76CC5B" d="M28.672 37.969c-6.247 0-11.328-5.082-11.328-11.328 0-6.247 5.081-11.328 11.328-11.328C34.918 15.313 40 20.393 40 26.64c0 6.246-5.082 11.328-11.328 11.328z"/>
    <path fill="#599944" d="M28.672 15.313v22.656C34.918 37.969 40 32.887 40 26.64c0-6.247-5.082-11.328-11.328-11.328z"/>
    <path fill="#F2F2F4" d="M32.188 28.984c0-1.938-1.578-3.515-3.516-3.515-.646 0-1.172-.526-1.172-1.172 0-.262.084-.51.244-.716.247-.32.67-.481 1.101-.42l2.396.343.331-2.32-1.728-.247v-1.328H27.5v1.392c-.631.217-1.195.61-1.61 1.147-.48.62-.734 1.364-.734 2.149 0 1.938 1.577 3.515 3.516 3.515.646 0 1.172.526 1.172 1.172 0 .586-.437 1.086-1.016 1.162-.059.008-.133.008-.22 0l-2.57-.22-.2 2.335 1.662.143v1.268h2.344v-1.374c1.375-.487 2.343-1.804 2.343-3.314z"/>
    <path fill="#DFDFE1" d="M28.672 19.61v3.539c.057 0 .115.004.173.013l2.396.342.331-2.32-1.728-.247v-1.328h-1.172zM28.672 25.469v2.343c.646 0 1.172.526 1.172 1.172 0 .586-.437 1.086-1.016 1.162-.044.006-.096.007-.156.005v3.52h1.172v-1.373c1.375-.487 2.343-1.804 2.343-3.314 0-1.938-1.577-3.515-3.515-3.515z"/>
</svg>
