<svg xmlns="http://www.w3.org/2000/svg" width="40" height="40" fill="none" viewBox="0 0 40 40">
    <g clip-path="url(#clip0)">
        <path fill="#FAF0F0" d="M12.98 28.061H27.02V40H12.981V28.061z"/>
        <path fill="#EFE2DD" d="M20 28.061h7.02V40H20V28.061z"/>
        <path fill="#F04E44" d="M12.59 28.061c-4.516 0-8.19 3.674-8.19 8.19V40h10.143V28.061H12.59zM27.41 28.061h-1.954V40H35.6v-3.748c0-4.517-3.674-8.19-8.19-8.19z"/>
        <path fill="#D8342A" d="M27.41 28.061h-1.954V40H35.6v-3.748c0-4.517-3.674-8.19-8.19-8.19z"/>
        <path fill="#FFDDCE" d="M17.135 20.396l1.366-.572c.953-.4 2.045-.4 2.998 0l1.366.572c1.653.693 3.4 1.045 5.194 1.045h.878c.622-1.393.953-2.913.953-4.454V9.374H10.11v7.613c0 1.541.33 3.06.953 4.454h.878c1.793 0 3.54-.352 5.194-1.045z"/>
        <path fill="#FFCBBC" d="M20 9.374v10.15c.511 0 1.022.1 1.499.3l1.366.572c1.653.693 3.4 1.045 5.194 1.045h.878c.622-1.394.953-2.913.953-4.454V9.374H20z"/>
        <path fill="#5D5655" d="M14.921 13.79h2.344v2.344h-2.344V13.79zM22.735 13.79h2.344v2.344h-2.344V13.79zM10.11 6.25v4.186l6.647 1.728c1.058.275 2.15.414 3.243.414s2.184-.14 3.243-.414l6.647-1.728V6.25H10.11z"/>
        <path fill="#3B3735" d="M29.89 10.436V6.25H20v6.328c1.093 0 2.184-.14 3.243-.414l6.647-1.728z"/>
        <path fill="#FFDDCE" d="M15.393 24.477v3.584l4.03 5.821h1.153l4.03-5.82v-3.585h-9.213z"/>
        <path fill="#FFCBBC" d="M20.577 33.882l4.03-5.82v-3.585H20v9.405h.577z"/>
        <path fill="#5D5655" d="M18.829 35.134V40h2.344v-4.866c2.92.394 5.468 2.237 6.759 4.866h2.547c-.728-1.955-2.01-3.7-3.674-4.979-1.966-1.512-4.319-2.31-6.804-2.31-2.486 0-4.839.799-6.805 2.31-1.664 1.28-2.946 3.024-3.674 4.979h2.547c1.292-2.629 3.839-4.472 6.76-4.866z"/>
        <path fill="#F04E44" d="M30.271 7.695c.897-.979 1.199-2.32.808-3.59-.39-1.268-1.395-2.208-2.686-2.513L23.253.377c-2.129-.503-4.376-.503-6.505 0l-5.14 1.215c-1.293.305-2.297 1.245-2.688 2.514-.39 1.269-.088 2.61.809 3.59l.381.416h19.78l.381-.417z"/>
        <path fill="#E1EBF0" d="M28.058 19.097c-1.48 0-2.922-.29-4.287-.862l-1.367-.573c-1.528-.64-3.28-.64-4.809 0l-1.366.573c-1.365.572-2.808.862-4.288.862h-1.624c.346 1.748 1.117 3.402 2.255 4.794 1.587 1.942 3.816 3.288 6.274 3.788l1.154.235 1.154-.235c2.458-.5 4.686-1.846 6.274-3.788 1.137-1.392 1.908-3.046 2.254-4.794h-1.624z"/>
        <path fill="#3B3735" d="M22.735 13.79h2.344v2.344h-2.344V13.79z"/>
        <path fill="#BED9DD" d="M21.154 27.679c2.458-.5 4.686-1.846 6.274-3.788 1.137-1.392 1.908-3.046 2.254-4.794H28.06c-1.48 0-2.923-.29-4.288-.862l-1.366-.573c-.765-.32-1.585-.48-2.405-.48v10.732l1.154-.235z"/>
        <path fill="#3B3735" d="M26.805 35.02c-1.966-1.51-4.32-2.31-6.805-2.31V40h1.172v-4.866c2.921.394 5.468 2.237 6.76 4.866h2.547c-.728-1.955-2.01-3.7-3.674-4.98z"/>
        <path fill="#D8342A" d="M30.271 7.695c.897-.979 1.199-2.32.808-3.59-.39-1.268-1.394-2.208-2.686-2.513L23.253.377C22.19.126 21.094 0 20 0v8.112h9.89l.381-.417z"/>
    </g>
    <defs>
        <clipPath id="clip0">
            <path fill="#fff" d="M0 0H40V40H0z"/>
        </clipPath>
    </defs>
</svg>
