<svg xmlns="http://www.w3.org/2000/svg" width="270" height="250" fill="none" viewBox="0 0 270 250">
    <g clip-path="url(#clip0)" filter="url(#filter0_d)">
        <path fill="#fff" d="M109.85 140.06C103.2 133.631 94.45 130 85.131 130c-26.746 0-43.54 28.977-30.184 52.028L50 200l18.477-4.818c8.05 4.348 14.645 3.963 16.672 4.22 31.013 0 46.451-37.52 24.657-59.229l.044-.113z"/>
        <path fill="#4CAF50" d="M85.195 193.44l-.017-.003h-.047c-9.28 0-15.21-4.395-15.794-4.649L58.4 191.632l2.931-10.631-.697-1.094c-2.887-4.597-4.422-9.89-4.422-15.342 0-25.646 31.34-38.471 49.476-20.343 18.092 17.937 5.39 49.218-20.493 49.218z"/>
        <path fill="#fff" d="M101.062 171.729l-.026.219c-.878-.438-5.154-2.529-5.95-2.818-1.788-.662-1.284-.105-4.716 3.827-.51.569-1.018.612-1.885.219-.875-.438-3.683-1.357-7.008-4.332-2.59-2.318-4.329-5.162-4.842-6.037-.855-1.476.933-1.686 2.56-4.766.292-.613.144-1.094-.072-1.528-.219-.438-1.96-4.725-2.69-6.435-.7-1.703-1.42-1.487-1.96-1.487-1.68-.146-2.907-.123-3.99 1.003-4.707 5.174-3.52 10.512.508 16.188 7.916 10.36 12.133 12.267 19.845 14.916 2.083.662 3.981.568 5.484.353 1.674-.266 5.153-2.103 5.879-4.16.744-2.056.744-3.762.525-4.156-.215-.394-.787-.612-1.662-1.006z"/>
    </g>
    <defs>
        <clipPath id="clip0">
            <path fill="#fff" d="M0 0H70V70H0z" transform="translate(50 130)"/>
        </clipPath>
        <filter id="filter0_d" width="370" height="370" x="-100" y="0" color-interpolation-filters="sRGB" filterUnits="userSpaceOnUse">
            <feFlood flood-opacity="0" result="BackgroundImageFix"/>
            <feColorMatrix in="SourceAlpha" values="0 0 0 0 0 0 0 0 0 0 0 0 0 0 0 0 0 0 127 0"/>
            <feOffset dy="20"/>
            <feGaussianBlur stdDeviation="75"/>
            <feColorMatrix values="0 0 0 0 0 0 0 0 0 0.00661765 0 0 0 0 0.1125 0 0 0 0.3 0"/>
            <feBlend in2="BackgroundImageFix" result="effect1_dropShadow"/>
            <feBlend in="SourceGraphic" in2="effect1_dropShadow" result="shape"/>
        </filter>
    </defs>
</svg>
