<svg xmlns="http://www.w3.org/2000/svg" width="33" height="33" fill="none" viewBox="0 0 33 33">
    <path fill="#F04E44" fill-rule="evenodd" d="M24.75 17.123c0 1.335-.165 2.67-.165 2.67s-.16 1.137-.656 1.638c-.627.657-1.33.66-1.653.699-2.309.167-5.776.172-5.776.172s-4.29-.04-5.61-.165c-.367-.07-1.192-.049-1.82-.706-.494-.5-.655-1.637-.655-1.637s-.165-1.336-.165-2.671V15.87c0-1.335.165-2.67.165-2.67s.16-1.137.656-1.639c.627-.656 1.33-.66 1.653-.698 2.309-.167 5.773-.167 5.773-.167h.006s3.464 0 5.773.167c.323.038 1.026.041 1.653.698.495.502.656 1.639.656 1.639s.165 1.335.165 2.67v1.252zM16.5 0C7.387 0 0 7.387 0 16.5 0 25.612 7.387 33 16.5 33S33 25.612 33 16.5C33 7.387 25.613 0 16.5 0z" clip-rule="evenodd"/>
    <path fill="#F04E44" fill-rule="evenodd" d="M14.796 18.64l4.459-2.31-4.46-2.327.001 4.636z" clip-rule="evenodd"/>
</svg>
