<svg xmlns="http://www.w3.org/2000/svg" width="270" height="100" fill="none" viewBox="0 0 270 100">
    <g fill="#CCC" clip-path="url(#clip0)">
        <path d="M123.983 82.106c-11.613 8.56-28.447 13.128-42.94 13.128-20.322 0-38.616-7.517-52.457-20.018-1.087-.983-.113-2.322 1.192-1.557 14.937 8.69 33.406 13.92 52.483 13.92 12.866 0 27.02-2.663 40.034-8.187 1.967-.835 3.611 1.287 1.688 2.714z"/>
        <path d="M128.811 76.582c-1.479-1.896-9.813-.896-13.554-.452-1.139.14-1.313-.853-.287-1.566 6.638-4.672 17.529-3.324 18.8-1.758 1.27 1.575-.331 12.493-6.568 17.704-.957.8-1.871.374-1.444-.687 1.4-3.498 4.541-11.336 3.053-13.241zM115.519 41.584v-4.54c0-.688.522-1.149 1.148-1.149h20.331c.652 0 1.174.47 1.174 1.148v3.889c-.008.652-.557 1.505-1.531 2.853l-10.535 15.041c3.915-.096 8.047.487 11.596 2.488.801.453 1.018 1.114 1.079 1.766v4.846c0 .66-.731 1.435-1.496 1.035-6.255-3.28-14.563-3.636-21.479.035-.705.383-1.444-.383-1.444-1.044V63.35c0-.74.008-2 .748-3.123l12.205-17.503h-10.622c-.652 0-1.174-.461-1.174-1.14zM41.357 69.918H35.17c-.591-.043-1.06-.487-1.104-1.052V37.12c0-.635.53-1.139 1.191-1.139h5.768c.6.026 1.079.487 1.122 1.061v4.15h.114c1.505-4.01 4.332-5.881 8.142-5.881 3.871 0 6.29 1.87 8.03 5.88 1.496-4.01 4.897-5.88 8.543-5.88 2.592 0 5.428 1.07 7.159 3.47 1.957 2.671 1.557 6.551 1.557 9.953l-.008 20.034c0 .635-.531 1.149-1.192 1.149h-6.177c-.617-.044-1.113-.54-1.113-1.149V51.945c0-1.34.121-4.68-.174-5.95-.461-2.131-1.845-2.732-3.636-2.732-1.497 0-3.063 1-3.698 2.601-.635 1.601-.574 4.28-.574 6.081V68.77c0 .635-.53 1.148-1.192 1.148h-6.176c-.627-.043-1.114-.54-1.114-1.148l-.008-16.825c0-3.54.583-8.752-3.81-8.752-4.445 0-4.272 5.081-4.272 8.752V68.77c0 .635-.531 1.148-1.192 1.148zm114.318-34.606c9.178 0 14.145 7.882 14.145 17.904 0 9.682-5.489 17.363-14.145 17.363-9.012 0-13.919-7.88-13.919-17.702 0-9.884 4.968-17.565 13.919-17.565zm.052 6.48c-4.558 0-4.846 6.212-4.846 10.083 0 3.88-.061 12.162 4.793 12.162 4.794 0 5.02-6.68 5.02-10.752 0-2.68-.113-5.881-.922-8.421-.696-2.21-2.079-3.071-4.045-3.071zm25.994 28.126h-6.16c-.617-.043-1.113-.539-1.113-1.148l-.009-31.753c.053-.582.566-1.035 1.192-1.035h5.733c.539.026.983.392 1.105.887v4.854h.113c1.731-4.34 4.158-6.411 8.43-6.411 2.775 0 5.48 1 7.22 3.74 1.618 2.54 1.618 6.812 1.618 9.883v19.982c-.069.557-.583 1-1.192 1h-6.202c-.566-.043-1.035-.46-1.096-1V51.675c0-3.47.4-8.551-3.872-8.551-1.504 0-2.888 1.009-3.575 2.54-.87 1.94-.983 3.871-.983 6.011V68.77c-.009.636-.548 1.15-1.209 1.15zm-71.396-5.82c-1.131-1.566-2.331-2.836-2.331-5.733v-9.639c0-4.08.287-7.829-2.723-10.639-2.375-2.28-6.307-3.08-9.317-3.08-5.88 0-12.458 2.193-13.832 9.465-.148.774.417 1.183.922 1.297l5.993.643c.566-.026.975-.574 1.08-1.13.512-2.506 2.609-3.715 4.967-3.715 1.278 0 2.722.47 3.47 1.61.87 1.27.758 3.01.758 4.48v.8c-3.585.408-8.274.67-11.632 2.148-3.88 1.67-6.594 5.09-6.594 10.11 0 6.428 4.045 9.638 9.257 9.638 4.392 0 6.802-1.035 10.195-4.498 1.123 1.627 1.497 2.419 3.55 4.124.461.243 1.052.217 1.461-.148l.009.017c1.235-1.096 3.479-3.053 4.741-4.105.505-.418.418-1.088.026-1.645zm-12.17-2.784c-.984 1.74-2.55 2.81-4.28 2.81-2.375 0-3.767-1.81-3.767-4.48 0-5.272 4.723-6.229 9.204-6.229v1.34c0 2.41.06 4.42-1.157 6.56zm-68.917 2.784c-1.13-1.566-2.33-2.836-2.33-5.733v-9.639c0-4.08.286-7.829-2.724-10.639-2.375-2.28-6.307-3.08-9.317-3.08-5.88 0-12.449 2.193-13.832 9.465-.14.774.418 1.183.922 1.297l6.003.643c.557-.026.965-.574 1.07-1.13.513-2.506 2.619-3.715 4.976-3.715 1.27 0 2.714.47 3.471 1.61.861 1.27.748 3.01.748 4.48v.8c-3.584.408-8.273.67-11.631 2.148C2.723 52.276 0 55.695 0 60.715c0 6.428 4.054 9.638 9.256 9.638 4.402 0 6.803-1.035 10.196-4.498 1.131 1.627 1.496 2.419 3.55 4.124.46.243 1.052.217 1.46-.148l.018.017c1.236-1.096 3.48-3.053 4.741-4.105.505-.418.417-1.088.017-1.645zm-12.17-2.784c-.983 1.74-2.54 2.81-4.28 2.81-2.375 0-3.758-1.81-3.758-4.48 0-5.272 4.723-6.229 9.195-6.229v1.34c0 2.41.06 4.42-1.157 6.56z"/>
    </g>
    <defs>
        <clipPath id="clip0">
            <path fill="#fff" d="M0 0H200V60.241H0z" transform="translate(0 35)"/>
        </clipPath>
    </defs>
</svg>
