<svg xmlns="http://www.w3.org/2000/svg" width="270" height="100" fill="none" viewBox="0 0 270 100">
    <g clip-path="url(#clip0)">
        <path fill="#CCC" d="M157.566 51.926c.445-1.512.892-3.024 1.336-4.537.569-1.944 1.129-3.892 1.706-5.832.416-1.393 1.127-1.913 2.56-1.915 1.005-.002 2.01-.003 3.013 0 1.29.003 2.056.56 2.423 1.8.941 3.19 1.869 6.386 2.806 9.579.089.31.189.616.417.916.153-.487.313-.972.458-1.462.845-2.851 1.687-5.702 2.528-8.555.488-1.65 1.32-2.276 3.039-2.278 1.078-.002 2.156-.005 3.234 0 .908.005 1.293.417 1.071 1.305-.285 1.133-.665 2.242-1.024 3.358-1.639 5.113-3.283 10.227-4.933 15.339-.441 1.36-1.317 1.978-2.747 1.983-.799.003-1.598.003-2.397 0-1.401-.007-2.321-.674-2.742-2.005-1.146-3.633-2.285-7.269-3.43-10.904-.06-.192-.132-.38-.254-.736-.116.317-.188.49-.245.666-1.15 3.651-2.295 7.305-3.453 10.955-.435 1.376-1.334 2.019-2.777 2.024-.819.003-1.636.005-2.455 0-1.316-.01-2.226-.65-2.632-1.91-1.787-5.535-3.563-11.076-5.341-16.614-.183-.566-.377-1.129-.537-1.701-.078-.284-.124-.586-.122-.878.003-.577.284-.87.855-.874 1.321-.015 2.642-.03 3.961.005 1.213.034 2.088.742 2.443 1.93.974 3.258 1.936 6.52 2.905 9.78.057.19.121.377.181.566M134.803 52.544v.03c-1.021 0-2.045-.046-3.063.013-.998.058-1.836.482-2.283 1.443-.651 1.404.162 2.976 1.794 3.3 2.471.494 4.694-.286 6.777-1.555.132-.08.21-.34.217-.522.024-.722-.007-1.448.016-2.172.011-.418-.16-.552-.561-.543-.966.018-1.931.006-2.897.006zm3.985 7.318c-.351.215-.63.39-.912.56-2.105 1.28-4.412 1.723-6.842 1.61-1.567-.076-3.102-.333-4.545-1.002-2.649-1.227-4.097-3.46-4.017-6.142.088-3.016 1.647-4.957 4.366-6.06 1.466-.593 3.006-.824 4.581-.828 2.063-.003 4.126-.014 6.19.008.525.007.676-.156.621-.68-.276-2.559-1.329-3.537-3.921-3.553-1.031-.008-2.047.135-2.963.645-.349.195-.682.46-.946.762-.622.706-1.386 1.032-2.311 1.03-.874 0-1.749.004-2.623 0-1.027-.006-1.502-.56-1.425-1.602.15-2.055 1.264-3.393 3.092-4.206 1.497-.668 3.089-.94 4.707-1.069 2.249-.18 4.495-.236 6.708.318 2.409.604 4.399 1.793 5.561 4.092.625 1.235.875 2.56.875 3.936.001 4.183.003 8.366-.002 12.548 0 .99-.401 1.391-1.383 1.396-1.078.007-2.158.003-3.236.002-1.104-.002-1.455-.336-1.523-1.442-.003-.073-.021-.144-.052-.323zM215.083 59.975c-.677-.085-1.25-.134-1.814-.232-1.887-.325-3.37-1.313-4.532-2.812-1.286-1.655-2.104-3.549-2.722-5.525-1.08-3.46-2.109-6.935-3.151-10.406-.256-.853.111-1.348.99-1.357 1.265-.01 2.529-.006 3.793-.001 1.005.005 1.67.505 1.97 1.486.945 3.093 1.869 6.192 2.83 9.28.388 1.244.879 2.453 1.701 3.49.44.556.987.94 1.693 1.102.43.1.634-.01.755-.455 1.114-4.089 2.246-8.172 3.373-12.258.119-.429.233-.861.359-1.288.262-.883.888-1.354 1.81-1.357 1.246-.005 2.492-.005 3.738 0 .953.005 1.337.487 1.09 1.388-1.785 6.527-3.541 13.06-5.391 19.568-.429 1.505-1.083 2.973-1.817 4.36-1.345 2.545-3.542 3.889-6.437 3.86-1.758-.017-3.518-.22-5.273-.402-.895-.093-1.259-.584-1.264-1.468-.003-.65-.011-1.303.005-1.953.018-.787.472-1.27 1.263-1.24.849.033 1.701.134 2.542.264 1.22.188 2.249-.13 3.068-1.053.745-.842 1.134-1.853 1.421-2.991zM105.686 50.592c0-3.16-.067-6.325.035-9.482.039-1.26.318-2.556.72-3.756.842-2.505 2.804-3.804 5.281-4.397 2.709-.65 5.457-.617 8.209-.388.703.058 1.406.154 2.099.278.879.155 1.246.617 1.252 1.5.005.612.013 1.227-.003 1.84-.023.883-.476 1.346-1.36 1.332-.628-.01-1.266-.045-1.882-.16-1.68-.318-3.339-.196-4.978.189-1.574.368-2.321 1.34-2.554 3.191-.07.552-.067 1.113-.122 1.667-.052.501.127.689.651.682 2.063-.024 4.128-.011 6.192-.01 1.098.002 1.48.38 1.484 1.471.004.67.012 1.34-.004 2.01-.02.885-.47 1.329-1.361 1.332-2.102.008-4.203.018-6.303-.006-.511-.007-.669.146-.666.66.018 3.85.01 7.7.009 11.549 0 1.166-.367 1.531-1.534 1.533-1.228.002-2.454.002-3.682 0-1.139-.002-1.515-.37-1.517-1.494-.002-3.18-.002-6.36-.002-9.541M191.813 42.096c.613-.41 1.083-.738 1.564-1.048 2.174-1.406 4.597-1.848 7.135-1.819.731.01 1.176.463 1.195 1.204.028 1.023.03 2.047-.003 3.068-.023.784-.448 1.208-1.238 1.213-.928.008-1.862-.008-2.785-.098-1.856-.18-3.36.496-4.722 1.705-.835.742-1.2 1.54-1.174 2.7.081 3.681.031 7.364.029 11.047-.001 1.182-.383 1.559-1.577 1.559-1.283.002-2.567.005-3.849-.002-.89-.005-1.342-.448-1.342-1.34-.005-6.434-.005-12.868-.002-19.304.002-.889.45-1.334 1.343-1.337 1.376-.007 2.751-.009 4.127 0 .822.006 1.271.453 1.297 1.275.01.347.002.696.002 1.177zM95.191 50.429c0 14.385-11.66 26.047-26.046 26.047-2.738 0-5.377-.424-7.858-1.206-3.733-1.18-7.104-3.177-9.9-5.784-5.1-4.755-8.29-11.534-8.29-19.057 0-14.387 11.662-26.048 26.048-26.048 3.114 0 6.1.547 8.868 1.55 3.597 1.301 6.827 3.374 9.488 6.018 4.75 4.72 7.69 11.256 7.69 18.48z"/>
        <path fill="#fff" d="M81.229 61.491l-3.507-1.753S71.74 70.628 61.287 75.27c-3.733-1.179-7.104-3.177-9.9-5.784 2.29-.333 6.004-1.509 9.913-5.353 6.38-6.276 7.845-9.729 7.845-9.729L66.41 52.58c-.94-.626-.758-2.057.309-2.428L78.75 45.96c.82-.285 1.693.255 1.806 1.112l1.787 13.625c.082.615-.56 1.072-1.115.794zM84.855 46.41c-.296.744-1.382.635-1.519-.155l-.802-4.614-5.948 1.85c-.66.204-1.245-.47-.951-1.093.773-1.65 1.93-4.46 2.82-8.08.843-3.43.23-6.445-.442-8.387 3.598 1.301 6.828 3.374 9.49 6.018.48 5.458-1.39 11.271-2.648 14.461z"/>
    </g>
    <defs>
        <clipPath id="clip0">
            <path fill="#fff" d="M0 0H183.902V52H0z" transform="translate(43 24)"/>
        </clipPath>
    </defs>
</svg>
