<svg xmlns="http://www.w3.org/2000/svg" width="40" height="40" fill="none" viewBox="0 0 40 40">
    <path fill="#6CBA4D" d="M20 0C11.49 0 4.565 6.924 4.565 15.435c0 2.939.8 6.06 2.38 9.274 1.253 2.549 2.996 5.165 5.181 7.775 3.71 4.431 7.362 7.274 7.515 7.393.106.082.233.123.359.123.127 0 .253-.04.359-.123.153-.118 3.805-2.962 7.515-7.393 2.185-2.61 3.929-5.226 5.18-7.775 1.58-3.215 2.381-6.335 2.381-9.274C35.435 6.925 28.511 0 20 0z"/>
    <path fill="#509D31" d="M20 0c-.576 0-1.144.033-1.703.094C26.01.944 32.03 7.5 32.03 15.435c0 2.939-.8 6.06-2.38 9.274-1.252 2.549-2.995 5.165-5.18 7.775-2.388 2.85-4.75 5.044-6.173 6.278.789.684 1.289 1.073 1.344 1.115.105.082.232.123.358.123.127 0 .254-.04.36-.123.153-.118 3.804-2.962 7.514-7.393 2.186-2.61 3.929-5.226 5.181-7.775 1.58-3.215 2.38-6.335 2.38-9.274C35.434 6.925 28.51 0 20 0z"/>
    <path fill="#fff" d="M18.857 7.428c-4.411 0-8 3.59-8 8 0 4.412 3.589 8 8 8s8-3.588 8-8c0-4.41-3.589-8-8-8z"/>
</svg>
