<svg xmlns="http://www.w3.org/2000/svg" width="33" height="33" fill="none" viewBox="0 0 33 33">
    <path fill="#A8A9B7" d="M19.658 16.5c0 1.747-1.411 3.158-3.158 3.158-1.747 0-3.158-1.411-3.158-3.158 0-1.747 1.411-3.158 3.158-3.158 1.747 0 3.158 1.411 3.158 3.158z"/>
    <path fill="#A8A9B7" d="M23.886 10.912c-.154-.413-.393-.786-.709-1.09-.302-.315-.676-.554-1.089-.708-.335-.13-.838-.284-1.76-.329-.998-.045-1.301-.058-3.828-.058-2.533 0-2.83.006-3.828.058-.922.045-1.425.2-1.76.329-.413.154-.786.393-1.09.709-.315.303-.554.676-.708 1.089-.13.335-.284.838-.329 1.76-.045.999-.058 1.295-.058 3.828s.013 2.83.058 3.829c.045.921.193 1.424.329 1.76.154.412.393.786.709 1.088.303.316.676.555 1.089.71.335.128.838.283 1.76.328.999.045 1.295.058 3.828.058s2.83-.006 3.829-.058c.921-.045 1.424-.193 1.76-.329.824-.315 1.482-.973 1.797-1.798.13-.335.284-.838.33-1.76.044-.998.057-1.301.057-3.828 0-2.533-.006-2.83-.058-3.828-.045-.922-.2-1.425-.329-1.76zM16.5 21.366c-2.688 0-4.866-2.178-4.866-4.866 0-2.688 2.178-4.866 4.866-4.866 2.688 0 4.866 2.178 4.866 4.866 0 2.688-2.178 4.866-4.866 4.866zm5.06-8.785c-.625 0-1.135-.509-1.135-1.134 0-.625.51-1.134 1.135-1.134s1.134.509 1.134 1.134c0 .625-.51 1.134-1.134 1.134z"/>
    <path fill="#A8A9B7" d="M16.5 0C7.386 0 0 7.386 0 16.5S7.386 33 16.5 33 33 25.614 33 16.5 25.614 0 16.5 0zm9.417 20.406c-.046 1.005-.207 1.695-.439 2.3-.49 1.27-1.495 2.282-2.771 2.772-.6.232-1.29.393-2.301.439-1.012.045-1.334.058-3.906.058s-2.894-.013-3.906-.058c-1.005-.046-1.695-.207-2.3-.439-.632-.238-1.206-.612-1.677-1.095-.483-.47-.857-1.044-1.095-1.676-.232-.6-.393-1.29-.439-2.301-.045-1.012-.058-1.334-.058-3.906s.013-2.894.058-3.906c.046-1.005.207-1.695.439-2.3.238-.632.612-1.206 1.095-1.677.47-.483 1.045-.857 1.676-1.095.606-.232 1.29-.393 2.301-.439 1.012-.045 1.334-.058 3.906-.058s2.894.013 3.906.058c1.005.046 1.695.207 2.3.439.633.238 1.206.612 1.677 1.095.483.47.857 1.045 1.095 1.676.232.606.393 1.29.439 2.301.045 1.012.058 1.334.058 3.906s-.013 2.894-.058 3.906z"/>
</svg>
