<svg xmlns="http://www.w3.org/2000/svg" width="270" height="100" fill="none" viewBox="0 0 270 100">
    <g clip-path="url(#clip0)">
        <path fill="#CCC" d="M81.429 34.21H70.976c-1.115-.21-.697.626-.697 1.044v30.941h11.15v-.697c0-.906.07-1.881 0-2.787-.21-1.742.348-3.206 1.812-4.181 2.16-1.533 3.902-3.624 5.993-5.157 2.3-1.603 4.041-3.694 6.271-5.784-.975-.836-1.811-1.603-2.648-2.44-3.832-3.623-7.596-7.316-11.428-10.94zM206.376 38.32c-.836.976-1.533 1.743-2.299 2.44-2.439 2.439-4.878 4.947-7.387 7.387-2.021 1.95-2.787 1.95-4.878-.07-.558-.558-1.185-1.115-1.742-1.742l-7.944-7.945-18.328 18.328c-.07.07-.139.14-.209.279-.767.766-.836 1.672-.07 2.439 2.091 2.09 4.112 4.32 6.551 6.41 3.554-4.599 7.665-8.292 11.637-12.264 4.669 3.902 8.293 8.432 13.171 12.544 1.115-1.325 2.16-2.44 2.997-3.694 1.742-2.787 4.32-4.808 6.55-7.108 2.021-2.02 2.3-2.09 4.181-.14 2.509 2.58 5.297 4.81 7.317 7.875.697.976 1.603 2.021 3.136 2.648 1.812-1.811 3.694-3.623 5.506-5.505 1.672-1.742 1.672-2.02 0-3.693-5.993-6.063-11.917-11.986-18.189-18.188zM250.558 38.878l-18.885 18.885c2.439 2.648 4.599 5.018 7.247 7.178.836-.767 1.603-1.394 2.37-2.16 2.648-2.579 5.226-5.227 7.874-7.875 1.812-1.742 2.091-1.742 3.972.07 1.673 1.602 3.276 3.275 4.948 4.878 1.672 1.672 3.415 3.345 4.948 4.808 2.578-2.439 4.878-4.669 6.899-6.62-6.411-6.272-12.753-12.613-19.373-19.164zM121.359 38.042c-5.505 4.808-18.118 17.7-19.651 20.07 2.16 2.369 4.32 4.669 6.759 6.69 1.185-.28 1.673-1.116 2.3-1.743 2.578-2.508 5.087-5.087 7.665-7.595 2.439-2.37 2.439-2.37 4.948.07l6.899 6.898c.906.836 1.603 1.951 2.439 2.3 2.509-2.44 4.739-4.739 7.247-7.178-6.202-6.272-12.613-12.544-18.606-19.512z"/>
        <path fill="#C4C4C4" d="M145.958 34H156.411V66.056H145.958z"/>
    </g>
    <defs>
        <clipPath id="clip0">
            <path fill="#fff" d="M0 0H200V32.056H0z" transform="translate(70 34)"/>
        </clipPath>
    </defs>
</svg>
