<svg xmlns="http://www.w3.org/2000/svg" width="33" height="33" fill="none" viewBox="0 0 33 33">
    <path fill="#A8A9B7" d="M16.5 0C7.386 0 0 7.386 0 16.5S7.386 33 16.5 33 33 25.614 33 16.5 25.614 0 16.5 0zm7.535 12.865c.006.161.012.329.012.49 0 5.001-3.809 10.776-10.776 10.776-2.14 0-4.132-.625-5.807-1.701.296.032.6.051.902.051 1.773 0 3.41-.606 4.705-1.624-1.656-.032-3.055-1.128-3.538-2.63.232.046.47.071.709.071.348 0 .683-.045.999-.135-1.734-.348-3.036-1.876-3.036-3.713V14.4c.51.283 1.096.457 1.714.47-1.018-.676-1.682-1.837-1.682-3.151 0-.697.187-1.348.516-1.902 1.869 2.295 4.66 3.796 7.805 3.958-.064-.277-.097-.568-.097-.864 0-2.088 1.695-3.79 3.79-3.79 1.09 0 2.076.458 2.765 1.199.864-.168 1.676-.483 2.404-.922-.283.883-.883 1.624-1.663 2.095.767-.09 1.496-.297 2.172-.6-.515.774-1.153 1.438-1.894 1.973z"/>
</svg>
